<svg xmlns="http://www.w3.org/2000/svg" viewBox="0 0 128 128">
  <path fill="#00599C" d="M64 14.98v14.17l12.17-7.03L64 14.98z" />
  <path fill="#004482" d="M64 14.98L51.83 22.1l12.17 7.06V14.98z" />
  <path fill="#6199CB" d="M51.83 36.03l12.17 7.06V29l-12.17 7.03z" />
  <path fill="#00599C" d="M64 43.08l12.17-7.05L64 29v14.08z" />
  <path fill="#659AD2" d="M38.96 29.05L51.13 36v-14l-12.17 7.05z" />
  <path fill="#004482" d="M51.13 36l12.19 7.08V29l-12.19 7z" />
  <path fill="#00599C" d="M51.13 50.94l12.19 7.06V43.9l-12.19 7.04z" />
  <path fill="#004482" d="M63.32 58l12.16-7.06-12.16-7.05V58z" />
  <path fill="#00599C" d="M38.96 43.9l12.17 7.04V36.85L38.96 43.9z" />
  <path fill="#004482" d="M51.13 50.94l12.19 7.06V43.9l-12.19 7.04z" />
  <path fill="#6199CB" d="M51.13 65.95l12.19 7.05V58.8l-12.19 7.15z" />
  <path fill="#00599C" d="M63.32 73l12.16-7.05-12.16-7.15V73z" />
  <path fill="#659AD2" d="M76.85 22.1L64.64 29v14.08l12.21-7.05V22.1z" />
  <path fill="#00599C" d="M76.85 36.03l12.2 7.05V29l-12.2 7.03z" />
  <path fill="#004482" d="M76.85 36.03L64.64 43.1V29l12.21 7.03z" />
  <path fill="#6199CB" d="M76.85 51.04l12.2 7.05V43.9l-12.2 7.14z" />
  <path fill="#00599C" d="M89.05 58.09l12.17-7.05-12.17-7.14v14.19z" />
  <path fill="#6199CB" d="M89.05 29.1L101.22 36V22l-12.17 7.1z" />
  <path fill="#00599C" d="M89.05 36l12.17 7.09V29l-12.17 7z" />
  <path fill="#004482" d="M76.85 50.94l-12.21 7.06V43.9l12.21 7.04z" />
  <path fill="#00599C" d="M76.85 50.94l12.2 7.05V43.9l-12.2 7.04z" />
  <path fill="#004482" d="M76.85 65.95l-12.21 7.05V58.8l12.21 7.15z" />
  <path fill="#6199CB" d="M76.85 65.95l12.2 7.05V58.8l-12.2 7.15z" />
  <path fill="#00599C" d="M89.05 73l12.17-7.05-12.17-7.15V73z" />
  <path fill="#004482" d="M38.96 58.8l12.17 7.15V51.76L38.96 58.8z" />
  <path fill="#00599C" d="M38.96 58.8l-12.21 7.03v-14l12.21 6.97z" />
  <path fill="#6199CB" d="M26.75 65.83L38.96 73V58.8l-12.21 7.03z" />
  <path fill="#00599C" d="M38.96 73.05l12.17-7.1-12.17-7.16v14.26z" />
  <path fill="#004482" d="M26.75 51.76l12.21 7.04V44.62l-12.21 7.14z" />
  <path fill="#00599C" d="M26.75 51.76l-12.12 7.04v-14l12.12 6.96z" />
  <path fill="#6199CB" d="M14.63 58.8l12.12 7.15V51.76L14.63 58.8z" />
  <path fill="#00599C" d="M26.75 65.95l12.21 7.1V58.8l-12.21 7.15z" />
  <path fill="#004482" d="M26.75 65.95L14.63 73.1V58.8l12.12 7.15z" />
  <path fill="#6199CB" d="M89.05 44.62l12.17 7.14V37.57l-12.17 7.05z" />
  <path fill="#00599C" d="M89.05 44.62l-12.2 7.14v-14.2l12.2 7.06z" />
  <path fill="#004482" d="M101.22 51.76l12.16 7.04V44.62l-12.16 7.14z" />
  <path fill="#00599C" d="M113.38 58.8l-12.16 7.15V51.76l12.16 7.04z" />
  <path fill="#004482" d="M101.22 36l12.16 7.08V29l-12.16 7z" />
  <path fill="#00599C" d="M101.22 36l-12.17 7.08V29l12.17 7z" />
  <path fill="#004482" d="M113.38 43.08L101.22 50V36l12.16 7.08z" />
  <path fill="#00599C" d="M113.38 43.08v14.02l-12.16-7.04 12.16-6.98z" />
  <path fill="#1F9CEB" d="M45 61h10v10H45z" />
  <path fill="#1F9CEB" d="M35 71h10v10H35zM45 71h10v10H45zM55 71h10v10H55zM35 81h10v10H35zM45 81h10v10H45zM55 81h10v10H55zM65 81h10v10H65zM75 81h10v10H75zM35 91h10v10H35zM45 91h10v10H45zM55 91h10v10H55zM65 91h10v10H65zM75 91h10v10H75zM85 91h10v10H85z" />
  <path fill="white" d="M85.1 42.8h5.5v-5.5h5.5v5.5h5.5v5.5h-5.5v5.5h-5.5v-5.5h-5.5zM68.5 42.8H74v-5.5h5.5v5.5H85v5.5h-5.5v5.5H74v-5.5h-5.5z"/>
</svg> 