<svg xmlns="http://www.w3.org/2000/svg" viewBox="0 0 32 32">
  <path d="M15.9.087l.854 1.604c.192.296.4.558.645.802a22.406 22.406 0 012.004 2.266c1.447 1.9 2.423 4.01 3.12 6.292.418 1.394.645 2.824.662 4.27.07 4.323-1.412 8.035-4.4 11.12a12.7 12.7 0 01-1.57 1.342c-.296 0-.436-.227-.558-.436a3.589 3.589 0 01-.436-1.255c-.105-.523-.174-1.046-.14-1.586v-.244C16.057 24.21 15.796.21 15.9.087z" fill="#599636"/>
  <path d="M15.9.034c-.035-.07-.07-.017-.105.017.017.35-.523 24.087-.523 24.087l-.07 1.2a7.073 7.073 0 00.314 1.829c.052.244.087.54.28.732.14.244.314.244.453.087h.157a4.99 4.99 0 001.274-1.06 14.656 14.656 0 004.126-9.555c.07-2.882-.732-5.498-2.075-7.938a15.909 15.909 0 00-3.83-4.466z" fill="#6cac48"/>
  <path d="M14.855 28.787a1.962 1.962 0 01-.192-.732 2.56 2.56 0 01.017-.567l.07-.942.105-1.516V.1c0-.07-.07-.122-.122-.07-.209.07-.383.244-.523.436a6.554 6.554 0 00-.94 1.604 19.51 19.51 0 00-1.203 4.492c-.14.907-.157 1.813-.21 2.738a14.118 14.118 0 001.52 7.08 13.556 13.556 0 002.162 3.424 7.446 7.446 0 001.55 1.515c.21.122.436.227.645.35.157.087.384.105.558.07a.561.561 0 00-.732-.732 2.387 2.387 0 01-.801-.732c-.157-.21-.28-.436-.384-.68z" fill="#c2bfbf"/>
</svg> 