<svg width="100%" height="100%" id="svg" viewBox="0 0 1440 590" xmlns="http://www.w3.org/2000/svg" class="transition duration-300 ease-in-out delay-150"><path d="M 0,600 L 0,150 C 68.93779904306217,136.5263157894737 137.87559808612434,123.05263157894737 238,134 C 338.12440191387566,144.94736842105263 469.43540669856463,180.31578947368416 581,205 C 692.5645933014354,229.68421052631584 784.3827751196172,243.68421052631584 883,216 C 981.6172248803828,188.31578947368416 1087.0334928229665,118.94736842105263 1181,101 C 1274.9665071770335,83.05263157894737 1357.4832535885166,116.52631578947368 1440,150 L 1440,600 L 0,600 Z" stroke="none" stroke-width="0" fill="#7b61ff" fill-opacity="0.53" class="transition-all duration-300 ease-in-out delay-150 path-0"></path><path d="M 0,600 L 0,350 C 84.49760765550238,324.87081339712915 168.99521531100476,299.74162679425837 252,301 C 335.00478468899524,302.25837320574163 416.5167464114834,329.9043062200957 531,332 C 645.4832535885166,334.0956937799043 792.9377990430622,310.64114832535887 899,315 C 1005.0622009569378,319.35885167464113 1069.732057416268,351.5311004784689 1153,362 C 1236.267942583732,372.4688995215311 1338.1339712918661,361.23444976076553 1440,350 L 1440,600 L 0,600 Z" stroke="none" stroke-width="0" fill="#7b61ff" fill-opacity="1" class="transition-all duration-300 ease-in-out delay-150 path-1"></path></svg>